<mxfile host="app.diagrams.net" modified="2023-06-25T16:39:48.220Z" agent="Mozilla/5.0 (X11; Linux x86_64) AppleWebKit/537.36 (KHTML, like Gecko) Chrome/114.0.0.0 Safari/537.36" etag="NH0xQgH8hUxgyrfGWC0V" version="21.5.0" type="github">
  <diagram name="Page-1" id="ZG4Qfww9NUMxssmWWQ_g">
    <mxGraphModel dx="2210" dy="895" grid="1" gridSize="10" guides="1" tooltips="1" connect="1" arrows="1" fold="1" page="1" pageScale="1" pageWidth="850" pageHeight="1100" math="1" shadow="0">
      <root>
        <mxCell id="0" />
        <mxCell id="1" parent="0" />
        <mxCell id="wNCD5_dSifdcLgb01J3R-76" value="" style="rounded=1;whiteSpace=wrap;html=1;arcSize=5;strokeColor=#DAE8FC;strokeWidth=2;" vertex="1" parent="1">
          <mxGeometry x="-265" y="470" width="300" height="205" as="geometry" />
        </mxCell>
        <mxCell id="wNCD5_dSifdcLgb01J3R-38" style="edgeStyle=orthogonalEdgeStyle;rounded=0;orthogonalLoop=1;jettySize=auto;html=1;exitX=1;exitY=0.25;exitDx=0;exitDy=0;entryX=0;entryY=0.25;entryDx=0;entryDy=0;strokeWidth=2;" edge="1" parent="1" source="wNCD5_dSifdcLgb01J3R-42" target="wNCD5_dSifdcLgb01J3R-48">
          <mxGeometry relative="1" as="geometry" />
        </mxCell>
        <mxCell id="wNCD5_dSifdcLgb01J3R-39" style="edgeStyle=orthogonalEdgeStyle;rounded=0;orthogonalLoop=1;jettySize=auto;html=1;exitX=0.5;exitY=0;exitDx=0;exitDy=0;entryX=0.054;entryY=1.02;entryDx=0;entryDy=0;entryPerimeter=0;strokeWidth=2;" edge="1" parent="1" source="wNCD5_dSifdcLgb01J3R-42" target="wNCD5_dSifdcLgb01J3R-69">
          <mxGeometry relative="1" as="geometry" />
        </mxCell>
        <mxCell id="wNCD5_dSifdcLgb01J3R-40" value="\( a^1 \)" style="edgeLabel;html=1;align=center;verticalAlign=middle;resizable=0;points=[];fontSize=20;" vertex="1" connectable="0" parent="wNCD5_dSifdcLgb01J3R-39">
          <mxGeometry x="0.3385" y="-2" relative="1" as="geometry">
            <mxPoint as="offset" />
          </mxGeometry>
        </mxCell>
        <mxCell id="wNCD5_dSifdcLgb01J3R-41" style="edgeStyle=orthogonalEdgeStyle;rounded=0;orthogonalLoop=1;jettySize=auto;html=1;exitX=0;exitY=0;exitDx=0;exitDy=0;entryX=0.019;entryY=1;entryDx=0;entryDy=0;entryPerimeter=0;dashed=1;startArrow=classic;startFill=1;endArrow=none;endFill=0;strokeColor=#FF0000;strokeWidth=2;" edge="1" parent="1" source="wNCD5_dSifdcLgb01J3R-42" target="wNCD5_dSifdcLgb01J3R-69">
          <mxGeometry relative="1" as="geometry" />
        </mxCell>
        <mxCell id="wNCD5_dSifdcLgb01J3R-42" value="\( \pi_{\theta _{1}}&amp;nbsp; \)" style="text;html=1;strokeColor=none;fillColor=none;align=center;verticalAlign=middle;whiteSpace=wrap;rounded=0;strokeWidth=0;fontSize=23;" vertex="1" parent="1">
          <mxGeometry x="100" y="620" width="40" height="30" as="geometry" />
        </mxCell>
        <mxCell id="wNCD5_dSifdcLgb01J3R-43" style="edgeStyle=orthogonalEdgeStyle;rounded=0;orthogonalLoop=1;jettySize=auto;html=1;exitX=0;exitY=0.75;exitDx=0;exitDy=0;entryX=1;entryY=0.75;entryDx=0;entryDy=0;strokeColor=#FF0000;dashed=1;strokeWidth=2;" edge="1" parent="1" source="wNCD5_dSifdcLgb01J3R-48" target="wNCD5_dSifdcLgb01J3R-42">
          <mxGeometry relative="1" as="geometry" />
        </mxCell>
        <mxCell id="wNCD5_dSifdcLgb01J3R-44" style="edgeStyle=orthogonalEdgeStyle;rounded=0;orthogonalLoop=1;jettySize=auto;html=1;exitX=1;exitY=0.25;exitDx=0;exitDy=0;entryX=0;entryY=0.25;entryDx=0;entryDy=0;strokeWidth=2;" edge="1" parent="1" source="wNCD5_dSifdcLgb01J3R-48">
          <mxGeometry relative="1" as="geometry">
            <mxPoint x="380" y="627.5" as="targetPoint" />
          </mxGeometry>
        </mxCell>
        <mxCell id="wNCD5_dSifdcLgb01J3R-45" style="edgeStyle=orthogonalEdgeStyle;rounded=0;orthogonalLoop=1;jettySize=auto;html=1;exitX=0.5;exitY=0;exitDx=0;exitDy=0;entryX=0.315;entryY=1;entryDx=0;entryDy=0;entryPerimeter=0;fontSize=20;strokeWidth=2;" edge="1" parent="1" source="wNCD5_dSifdcLgb01J3R-48" target="wNCD5_dSifdcLgb01J3R-69">
          <mxGeometry relative="1" as="geometry" />
        </mxCell>
        <mxCell id="wNCD5_dSifdcLgb01J3R-46" value="\( a^2 \)" style="edgeLabel;html=1;align=center;verticalAlign=middle;resizable=0;points=[];fontSize=20;" vertex="1" connectable="0" parent="wNCD5_dSifdcLgb01J3R-45">
          <mxGeometry x="0.339" y="-1" relative="1" as="geometry">
            <mxPoint as="offset" />
          </mxGeometry>
        </mxCell>
        <mxCell id="wNCD5_dSifdcLgb01J3R-47" style="edgeStyle=orthogonalEdgeStyle;rounded=0;orthogonalLoop=1;jettySize=auto;html=1;exitX=0;exitY=0;exitDx=0;exitDy=0;entryX=0.278;entryY=0.98;entryDx=0;entryDy=0;entryPerimeter=0;dashed=1;strokeWidth=2;endArrow=none;endFill=0;startArrow=classic;startFill=1;strokeColor=#FF0000;" edge="1" parent="1" source="wNCD5_dSifdcLgb01J3R-48" target="wNCD5_dSifdcLgb01J3R-69">
          <mxGeometry relative="1" as="geometry" />
        </mxCell>
        <mxCell id="wNCD5_dSifdcLgb01J3R-48" value="\( \pi_{\theta _{2}}&amp;nbsp; \)" style="text;html=1;strokeColor=none;fillColor=none;align=center;verticalAlign=middle;whiteSpace=wrap;rounded=0;strokeWidth=0;fontSize=23;" vertex="1" parent="1">
          <mxGeometry x="240" y="620" width="40" height="30" as="geometry" />
        </mxCell>
        <mxCell id="wNCD5_dSifdcLgb01J3R-49" style="edgeStyle=orthogonalEdgeStyle;rounded=0;orthogonalLoop=1;jettySize=auto;html=1;exitX=0;exitY=0.75;exitDx=0;exitDy=0;entryX=1;entryY=0.75;entryDx=0;entryDy=0;strokeColor=#FF0000;dashed=1;strokeWidth=2;" edge="1" parent="1" target="wNCD5_dSifdcLgb01J3R-48">
          <mxGeometry relative="1" as="geometry">
            <mxPoint x="380" y="642.5" as="sourcePoint" />
          </mxGeometry>
        </mxCell>
        <mxCell id="wNCD5_dSifdcLgb01J3R-50" value="" style="curved=1;endArrow=classic;html=1;rounded=0;exitX=0.5;exitY=1;exitDx=0;exitDy=0;entryX=1;entryY=1;entryDx=0;entryDy=0;dashed=1;strokeColor=#FF0000;strokeWidth=2;" edge="1" parent="1" target="wNCD5_dSifdcLgb01J3R-42">
          <mxGeometry width="50" height="50" relative="1" as="geometry">
            <mxPoint x="400" y="650" as="sourcePoint" />
            <mxPoint x="210" y="760" as="targetPoint" />
            <Array as="points">
              <mxPoint x="210" y="750" />
            </Array>
          </mxGeometry>
        </mxCell>
        <mxCell id="wNCD5_dSifdcLgb01J3R-51" style="edgeStyle=orthogonalEdgeStyle;rounded=0;orthogonalLoop=1;jettySize=auto;html=1;exitX=0;exitY=0.25;exitDx=0;exitDy=0;startArrow=classic;startFill=1;endArrow=none;endFill=0;strokeWidth=2;" edge="1" parent="1">
          <mxGeometry relative="1" as="geometry">
            <mxPoint x="490" y="627" as="targetPoint" />
            <mxPoint x="580" y="626.5" as="sourcePoint" />
          </mxGeometry>
        </mxCell>
        <mxCell id="wNCD5_dSifdcLgb01J3R-52" style="edgeStyle=orthogonalEdgeStyle;rounded=0;orthogonalLoop=1;jettySize=auto;html=1;exitX=0;exitY=0.75;exitDx=0;exitDy=0;strokeWidth=2;dashed=1;strokeColor=#FF0000;" edge="1" parent="1">
          <mxGeometry relative="1" as="geometry">
            <mxPoint x="490" y="642" as="targetPoint" />
            <mxPoint x="580" y="641.5" as="sourcePoint" />
          </mxGeometry>
        </mxCell>
        <mxCell id="wNCD5_dSifdcLgb01J3R-53" style="edgeStyle=orthogonalEdgeStyle;rounded=0;orthogonalLoop=1;jettySize=auto;html=1;exitX=0.5;exitY=0;exitDx=0;exitDy=0;entryX=0.944;entryY=1.06;entryDx=0;entryDy=0;entryPerimeter=0;strokeWidth=2;" edge="1" parent="1" source="wNCD5_dSifdcLgb01J3R-55" target="wNCD5_dSifdcLgb01J3R-69">
          <mxGeometry relative="1" as="geometry" />
        </mxCell>
        <mxCell id="wNCD5_dSifdcLgb01J3R-54" value="\( a^n \)" style="edgeLabel;html=1;align=center;verticalAlign=middle;resizable=0;points=[];fontSize=20;" vertex="1" connectable="0" parent="wNCD5_dSifdcLgb01J3R-53">
          <mxGeometry x="0.3789" y="-1" relative="1" as="geometry">
            <mxPoint y="1" as="offset" />
          </mxGeometry>
        </mxCell>
        <mxCell id="wNCD5_dSifdcLgb01J3R-55" value="\( \pi_{\theta _{n}}&amp;nbsp; \)" style="text;html=1;strokeColor=none;fillColor=none;align=center;verticalAlign=middle;whiteSpace=wrap;rounded=0;strokeWidth=0;fontSize=23;" vertex="1" parent="1">
          <mxGeometry x="580" y="620" width="40" height="30" as="geometry" />
        </mxCell>
        <mxCell id="wNCD5_dSifdcLgb01J3R-56" value="" style="curved=1;endArrow=classic;html=1;rounded=0;exitX=0.5;exitY=0;exitDx=0;exitDy=0;entryX=0;entryY=0;entryDx=0;entryDy=0;strokeWidth=2;" edge="1" parent="1" source="wNCD5_dSifdcLgb01J3R-42" target="wNCD5_dSifdcLgb01J3R-55">
          <mxGeometry width="50" height="50" relative="1" as="geometry">
            <mxPoint x="320" y="600" as="sourcePoint" />
            <mxPoint x="580" y="600" as="targetPoint" />
            <Array as="points">
              <mxPoint x="360" y="530" />
            </Array>
          </mxGeometry>
        </mxCell>
        <mxCell id="wNCD5_dSifdcLgb01J3R-57" value="\( a^1 \)" style="edgeLabel;html=1;align=center;verticalAlign=middle;resizable=0;points=[];fontSize=20;" vertex="1" connectable="0" parent="wNCD5_dSifdcLgb01J3R-56">
          <mxGeometry x="-0.0296" y="-39" relative="1" as="geometry">
            <mxPoint as="offset" />
          </mxGeometry>
        </mxCell>
        <mxCell id="wNCD5_dSifdcLgb01J3R-58" value="" style="curved=1;endArrow=classic;html=1;rounded=0;exitX=0.5;exitY=1;exitDx=0;exitDy=0;entryX=1;entryY=1;entryDx=0;entryDy=0;dashed=1;strokeColor=#FF0000;strokeWidth=2;" edge="1" parent="1" source="wNCD5_dSifdcLgb01J3R-55" target="wNCD5_dSifdcLgb01J3R-42">
          <mxGeometry width="50" height="50" relative="1" as="geometry">
            <mxPoint x="130" y="800" as="sourcePoint" />
            <mxPoint x="590" y="800" as="targetPoint" />
            <Array as="points">
              <mxPoint x="270" y="830" />
            </Array>
          </mxGeometry>
        </mxCell>
        <mxCell id="wNCD5_dSifdcLgb01J3R-59" value="\(\frac{\partial\pi_{\theta _{\color{Red} n}}}{\partial\theta _1} \)" style="edgeLabel;html=1;align=center;verticalAlign=middle;resizable=0;points=[];fontSize=25;fontColor=#000000;labelBackgroundColor=none;labelBorderColor=none;" vertex="1" connectable="0" parent="wNCD5_dSifdcLgb01J3R-58">
          <mxGeometry x="-0.1376" y="-62" relative="1" as="geometry">
            <mxPoint x="-1" y="-6" as="offset" />
          </mxGeometry>
        </mxCell>
        <mxCell id="wNCD5_dSifdcLgb01J3R-60" value="" style="endArrow=none;dashed=1;html=1;dashPattern=1 3;strokeWidth=2;rounded=0;" edge="1" parent="1">
          <mxGeometry width="50" height="50" relative="1" as="geometry">
            <mxPoint x="410" y="634.5" as="sourcePoint" />
            <mxPoint x="470" y="635" as="targetPoint" />
            <Array as="points">
              <mxPoint x="460" y="635" />
            </Array>
          </mxGeometry>
        </mxCell>
        <mxCell id="wNCD5_dSifdcLgb01J3R-61" style="edgeStyle=orthogonalEdgeStyle;rounded=0;orthogonalLoop=1;jettySize=auto;html=1;exitX=1;exitY=0.25;exitDx=0;exitDy=0;entryX=0;entryY=0.25;entryDx=0;entryDy=0;strokeWidth=2;" edge="1" parent="1">
          <mxGeometry relative="1" as="geometry">
            <mxPoint x="717.5" y="508" as="sourcePoint" />
            <mxPoint x="817.5" y="508" as="targetPoint" />
          </mxGeometry>
        </mxCell>
        <mxCell id="wNCD5_dSifdcLgb01J3R-62" value="&lt;font style=&quot;font-size: 23px;&quot;&gt;Forward&lt;/font&gt;" style="text;html=1;strokeColor=none;fillColor=none;align=center;verticalAlign=middle;whiteSpace=wrap;rounded=0;fontSize=23;" vertex="1" parent="1">
          <mxGeometry x="727.5" y="518" width="80" height="30" as="geometry" />
        </mxCell>
        <mxCell id="wNCD5_dSifdcLgb01J3R-63" style="edgeStyle=orthogonalEdgeStyle;rounded=0;orthogonalLoop=1;jettySize=auto;html=1;exitX=0;exitY=0.75;exitDx=0;exitDy=0;entryX=1;entryY=0.75;entryDx=0;entryDy=0;strokeColor=#FF0000;dashed=1;strokeWidth=2;" edge="1" parent="1">
          <mxGeometry relative="1" as="geometry">
            <mxPoint x="820" y="584" as="sourcePoint" />
            <mxPoint x="720" y="584" as="targetPoint" />
          </mxGeometry>
        </mxCell>
        <mxCell id="wNCD5_dSifdcLgb01J3R-64" value="&lt;font style=&quot;font-size: 23px;&quot;&gt;Backward&lt;/font&gt;" style="text;html=1;strokeColor=none;fillColor=none;align=center;verticalAlign=middle;whiteSpace=wrap;rounded=0;" vertex="1" parent="1">
          <mxGeometry x="710" y="594" width="115" height="30" as="geometry" />
        </mxCell>
        <mxCell id="wNCD5_dSifdcLgb01J3R-65" value="" style="curved=1;endArrow=classic;html=1;rounded=0;exitX=0.5;exitY=0;exitDx=0;exitDy=0;entryX=0;entryY=0;entryDx=0;entryDy=0;strokeWidth=2;" edge="1" parent="1" source="wNCD5_dSifdcLgb01J3R-48" target="wNCD5_dSifdcLgb01J3R-55">
          <mxGeometry width="50" height="50" relative="1" as="geometry">
            <mxPoint x="90" y="570" as="sourcePoint" />
            <mxPoint x="550" y="570" as="targetPoint" />
            <Array as="points">
              <mxPoint x="410" y="560" />
            </Array>
          </mxGeometry>
        </mxCell>
        <mxCell id="wNCD5_dSifdcLgb01J3R-66" value="\( a^2 \)" style="edgeLabel;html=1;align=center;verticalAlign=middle;resizable=0;points=[];fontSize=20;" vertex="1" connectable="0" parent="wNCD5_dSifdcLgb01J3R-65">
          <mxGeometry x="0.0679" y="-23" relative="1" as="geometry">
            <mxPoint x="-1" as="offset" />
          </mxGeometry>
        </mxCell>
        <mxCell id="wNCD5_dSifdcLgb01J3R-67" value="\( a^1 \)" style="text;html=1;strokeColor=none;fillColor=none;align=center;verticalAlign=middle;whiteSpace=wrap;rounded=0;fontSize=20;" vertex="1" parent="1">
          <mxGeometry x="180" y="604" width="20" height="20" as="geometry" />
        </mxCell>
        <mxCell id="wNCD5_dSifdcLgb01J3R-68" value="\( a^2 \)" style="text;html=1;strokeColor=none;fillColor=none;align=center;verticalAlign=middle;whiteSpace=wrap;rounded=0;fontSize=20;" vertex="1" parent="1">
          <mxGeometry x="322" y="601" width="22.5" height="26" as="geometry" />
        </mxCell>
        <mxCell id="wNCD5_dSifdcLgb01J3R-78" style="rounded=0;orthogonalLoop=1;jettySize=auto;html=1;exitX=0;exitY=1;exitDx=0;exitDy=0;entryX=1;entryY=1;entryDx=0;entryDy=0;dashed=1;dashPattern=8 8;endArrow=none;endFill=0;strokeWidth=1;" edge="1" parent="1" source="wNCD5_dSifdcLgb01J3R-69" target="wNCD5_dSifdcLgb01J3R-76">
          <mxGeometry relative="1" as="geometry" />
        </mxCell>
        <mxCell id="wNCD5_dSifdcLgb01J3R-69" value="&lt;span style=&quot;font-size: 25px;&quot;&gt;AgentMixer&lt;/span&gt;" style="rounded=1;whiteSpace=wrap;html=1;fillColor=#dae8fc;strokeColor=#6c8ebf;" vertex="1" parent="1">
          <mxGeometry x="90" y="440" width="540" height="50" as="geometry" />
        </mxCell>
        <mxCell id="wNCD5_dSifdcLgb01J3R-70" style="edgeStyle=orthogonalEdgeStyle;rounded=0;orthogonalLoop=1;jettySize=auto;html=1;exitX=0;exitY=0;exitDx=0;exitDy=0;entryX=0.278;entryY=0.98;entryDx=0;entryDy=0;entryPerimeter=0;dashed=1;strokeWidth=2;endArrow=none;endFill=0;startArrow=classic;startFill=1;strokeColor=#FF0000;" edge="1" parent="1">
          <mxGeometry relative="1" as="geometry">
            <mxPoint x="620" y="620" as="sourcePoint" />
            <mxPoint x="620" y="489" as="targetPoint" />
          </mxGeometry>
        </mxCell>
        <mxCell id="wNCD5_dSifdcLgb01J3R-71" value="\( \frac{\partial\pi_{\theta _1}}{\partial\theta _1} \)" style="text;html=1;strokeColor=none;fillColor=none;align=center;verticalAlign=middle;whiteSpace=wrap;rounded=0;fontSize=25;fontColor=#000000;" vertex="1" parent="1">
          <mxGeometry x="58" y="520" width="30" height="30" as="geometry" />
        </mxCell>
        <mxCell id="wNCD5_dSifdcLgb01J3R-72" value="\( \frac{\partial\pi_{\theta _2}}{\partial\theta _2} \)" style="text;html=1;strokeColor=none;fillColor=none;align=center;verticalAlign=middle;whiteSpace=wrap;rounded=0;fontSize=20;fontColor=#000000;" vertex="1" parent="1">
          <mxGeometry x="200" y="520" width="30" height="30" as="geometry" />
        </mxCell>
        <mxCell id="wNCD5_dSifdcLgb01J3R-73" value="\( \frac{\partial\pi_{\theta _n}}{\partial\theta _n} \)" style="text;html=1;strokeColor=none;fillColor=none;align=center;verticalAlign=middle;whiteSpace=wrap;rounded=0;fontSize=25;fontColor=#000000;" vertex="1" parent="1">
          <mxGeometry x="632" y="520" width="30" height="30" as="geometry" />
        </mxCell>
        <mxCell id="wNCD5_dSifdcLgb01J3R-74" value="\(\frac{\partial\pi_{\theta _{\color{Red} 2}}}{\partial\theta _1} \)" style="text;html=1;strokeColor=none;fillColor=none;align=center;verticalAlign=middle;whiteSpace=wrap;rounded=0;fontSize=25;fontColor=#000000;fontStyle=0;labelBackgroundColor=none;" vertex="1" parent="1">
          <mxGeometry x="188" y="654" width="30" height="30" as="geometry" />
        </mxCell>
        <mxCell id="wNCD5_dSifdcLgb01J3R-77" style="rounded=0;orthogonalLoop=1;jettySize=auto;html=1;exitX=1;exitY=0;exitDx=0;exitDy=0;entryX=0;entryY=0;entryDx=0;entryDy=0;dashed=1;dashPattern=8 8;endArrow=none;endFill=0;" edge="1" parent="1" source="wNCD5_dSifdcLgb01J3R-76" target="wNCD5_dSifdcLgb01J3R-69">
          <mxGeometry relative="1" as="geometry" />
        </mxCell>
        <mxCell id="wNCD5_dSifdcLgb01J3R-86" style="edgeStyle=orthogonalEdgeStyle;rounded=0;orthogonalLoop=1;jettySize=auto;html=1;exitX=0.5;exitY=0;exitDx=0;exitDy=0;entryX=0.13;entryY=0.973;entryDx=0;entryDy=0;entryPerimeter=0;" edge="1" parent="1" source="wNCD5_dSifdcLgb01J3R-80" target="wNCD5_dSifdcLgb01J3R-84">
          <mxGeometry relative="1" as="geometry" />
        </mxCell>
        <mxCell id="wNCD5_dSifdcLgb01J3R-80" value="\( a^1 \)" style="text;html=1;strokeColor=none;fillColor=none;align=center;verticalAlign=middle;whiteSpace=wrap;rounded=0;fontSize=20;" vertex="1" parent="1">
          <mxGeometry x="-185" y="690" width="20" height="20" as="geometry" />
        </mxCell>
        <mxCell id="wNCD5_dSifdcLgb01J3R-87" style="edgeStyle=orthogonalEdgeStyle;rounded=0;orthogonalLoop=1;jettySize=auto;html=1;exitX=0.5;exitY=0;exitDx=0;exitDy=0;entryX=0.283;entryY=1;entryDx=0;entryDy=0;entryPerimeter=0;" edge="1" parent="1" source="wNCD5_dSifdcLgb01J3R-81" target="wNCD5_dSifdcLgb01J3R-84">
          <mxGeometry relative="1" as="geometry" />
        </mxCell>
        <mxCell id="wNCD5_dSifdcLgb01J3R-81" value="\( a^2 \)" style="text;html=1;strokeColor=none;fillColor=none;align=center;verticalAlign=middle;whiteSpace=wrap;rounded=0;fontSize=20;" vertex="1" parent="1">
          <mxGeometry x="-153" y="687" width="22.5" height="26" as="geometry" />
        </mxCell>
        <mxCell id="wNCD5_dSifdcLgb01J3R-88" style="edgeStyle=orthogonalEdgeStyle;rounded=0;orthogonalLoop=1;jettySize=auto;html=1;exitX=0.5;exitY=0;exitDx=0;exitDy=0;entryX=0.826;entryY=1;entryDx=0;entryDy=0;entryPerimeter=0;" edge="1" parent="1" source="wNCD5_dSifdcLgb01J3R-82" target="wNCD5_dSifdcLgb01J3R-84">
          <mxGeometry relative="1" as="geometry" />
        </mxCell>
        <mxCell id="wNCD5_dSifdcLgb01J3R-82" value="\( a^2 \)" style="text;html=1;strokeColor=none;fillColor=none;align=center;verticalAlign=middle;whiteSpace=wrap;rounded=0;fontSize=20;" vertex="1" parent="1">
          <mxGeometry x="-45" y="687" width="22.5" height="26" as="geometry" />
        </mxCell>
        <mxCell id="wNCD5_dSifdcLgb01J3R-83" value="" style="endArrow=none;dashed=1;html=1;dashPattern=1 3;strokeWidth=2;rounded=0;" edge="1" parent="1">
          <mxGeometry width="50" height="50" relative="1" as="geometry">
            <mxPoint x="-108" y="702.5" as="sourcePoint" />
            <mxPoint x="-68" y="702.5" as="targetPoint" />
          </mxGeometry>
        </mxCell>
        <mxCell id="wNCD5_dSifdcLgb01J3R-84" value="&lt;span style=&quot;font-size: 20px;&quot;&gt;action embedding&lt;/span&gt;" style="rounded=1;whiteSpace=wrap;html=1;fillColor=#dae8fc;strokeColor=#6c8ebf;fontSize=20;" vertex="1" parent="1">
          <mxGeometry x="-201.25" y="620" width="202.5" height="37" as="geometry" />
        </mxCell>
        <mxCell id="wNCD5_dSifdcLgb01J3R-91" value="" style="rounded=1;whiteSpace=wrap;html=1;fillColor=#dae8fc;strokeColor=#6c8ebf;fontSize=20;" vertex="1" parent="1">
          <mxGeometry x="-210" y="480" width="220" height="108.5" as="geometry" />
        </mxCell>
        <mxCell id="wNCD5_dSifdcLgb01J3R-90" value="channel-mixing" style="rounded=1;whiteSpace=wrap;html=1;fillColor=#d5e8d4;strokeColor=#82b366;fontSize=20;arcSize=41;" vertex="1" parent="1">
          <mxGeometry x="-201.25" y="487" width="202.5" height="37" as="geometry" />
        </mxCell>
        <mxCell id="wNCD5_dSifdcLgb01J3R-92" value="agent-mixing" style="rounded=1;whiteSpace=wrap;html=1;fillColor=#e1d5e7;strokeColor=#9673a6;fontSize=20;arcSize=41;" vertex="1" parent="1">
          <mxGeometry x="-201.25" y="540" width="202.5" height="37" as="geometry" />
        </mxCell>
        <mxCell id="wNCD5_dSifdcLgb01J3R-93" value="&lt;font style=&quot;font-size: 20px;&quot;&gt;N x&lt;/font&gt;" style="text;html=1;strokeColor=none;fillColor=none;align=center;verticalAlign=middle;whiteSpace=wrap;rounded=0;" vertex="1" parent="1">
          <mxGeometry x="-270" y="516" width="60" height="30" as="geometry" />
        </mxCell>
        <mxCell id="wNCD5_dSifdcLgb01J3R-96" style="edgeStyle=orthogonalEdgeStyle;rounded=0;orthogonalLoop=1;jettySize=auto;html=1;exitX=0.5;exitY=0;exitDx=0;exitDy=0;entryX=0.13;entryY=0.973;entryDx=0;entryDy=0;entryPerimeter=0;" edge="1" parent="1">
          <mxGeometry relative="1" as="geometry">
            <mxPoint x="-175.5" y="622.5" as="sourcePoint" />
            <mxPoint x="-175.5" y="588.5" as="targetPoint" />
          </mxGeometry>
        </mxCell>
        <mxCell id="wNCD5_dSifdcLgb01J3R-97" style="edgeStyle=orthogonalEdgeStyle;rounded=0;orthogonalLoop=1;jettySize=auto;html=1;exitX=0.5;exitY=0;exitDx=0;exitDy=0;entryX=0.283;entryY=1;entryDx=0;entryDy=0;entryPerimeter=0;" edge="1" parent="1">
          <mxGeometry relative="1" as="geometry">
            <mxPoint x="-140.75" y="620" as="sourcePoint" />
            <mxPoint x="-142.75" y="590" as="targetPoint" />
          </mxGeometry>
        </mxCell>
        <mxCell id="wNCD5_dSifdcLgb01J3R-98" style="edgeStyle=orthogonalEdgeStyle;rounded=0;orthogonalLoop=1;jettySize=auto;html=1;exitX=0.5;exitY=0;exitDx=0;exitDy=0;entryX=0.826;entryY=1;entryDx=0;entryDy=0;entryPerimeter=0;" edge="1" parent="1">
          <mxGeometry relative="1" as="geometry">
            <mxPoint x="-34.25" y="620" as="sourcePoint" />
            <mxPoint x="-34.25" y="590" as="targetPoint" />
          </mxGeometry>
        </mxCell>
        <mxCell id="wNCD5_dSifdcLgb01J3R-101" style="edgeStyle=orthogonalEdgeStyle;rounded=0;orthogonalLoop=1;jettySize=auto;html=1;exitX=0.5;exitY=0;exitDx=0;exitDy=0;entryX=0.054;entryY=1.02;entryDx=0;entryDy=0;entryPerimeter=0;strokeWidth=2;" edge="1" parent="1">
          <mxGeometry relative="1" as="geometry">
            <mxPoint x="120" y="440" as="sourcePoint" />
            <mxPoint x="119" y="311" as="targetPoint" />
          </mxGeometry>
        </mxCell>
        <mxCell id="wNCD5_dSifdcLgb01J3R-102" value="\( a^1 \)" style="edgeLabel;html=1;align=center;verticalAlign=middle;resizable=0;points=[];fontSize=20;" vertex="1" connectable="0" parent="wNCD5_dSifdcLgb01J3R-101">
          <mxGeometry x="0.3385" y="-2" relative="1" as="geometry">
            <mxPoint as="offset" />
          </mxGeometry>
        </mxCell>
        <mxCell id="wNCD5_dSifdcLgb01J3R-103" style="edgeStyle=orthogonalEdgeStyle;rounded=0;orthogonalLoop=1;jettySize=auto;html=1;exitX=0.5;exitY=0;exitDx=0;exitDy=0;entryX=0.315;entryY=1;entryDx=0;entryDy=0;entryPerimeter=0;fontSize=20;strokeWidth=2;" edge="1" parent="1">
          <mxGeometry relative="1" as="geometry">
            <mxPoint x="260" y="440" as="sourcePoint" />
            <mxPoint x="260" y="310" as="targetPoint" />
          </mxGeometry>
        </mxCell>
        <mxCell id="wNCD5_dSifdcLgb01J3R-104" value="\( a^2 \)" style="edgeLabel;html=1;align=center;verticalAlign=middle;resizable=0;points=[];fontSize=20;" vertex="1" connectable="0" parent="wNCD5_dSifdcLgb01J3R-103">
          <mxGeometry x="0.339" y="-1" relative="1" as="geometry">
            <mxPoint as="offset" />
          </mxGeometry>
        </mxCell>
        <mxCell id="wNCD5_dSifdcLgb01J3R-105" style="edgeStyle=orthogonalEdgeStyle;rounded=0;orthogonalLoop=1;jettySize=auto;html=1;exitX=0.5;exitY=0;exitDx=0;exitDy=0;entryX=0.944;entryY=1.06;entryDx=0;entryDy=0;entryPerimeter=0;strokeWidth=2;" edge="1" parent="1">
          <mxGeometry relative="1" as="geometry">
            <mxPoint x="600" y="440" as="sourcePoint" />
            <mxPoint x="600" y="313" as="targetPoint" />
          </mxGeometry>
        </mxCell>
        <mxCell id="wNCD5_dSifdcLgb01J3R-106" value="\( a^n \)" style="edgeLabel;html=1;align=center;verticalAlign=middle;resizable=0;points=[];fontSize=20;" vertex="1" connectable="0" parent="wNCD5_dSifdcLgb01J3R-105">
          <mxGeometry x="0.3789" y="-1" relative="1" as="geometry">
            <mxPoint y="1" as="offset" />
          </mxGeometry>
        </mxCell>
      </root>
    </mxGraphModel>
  </diagram>
</mxfile>
